<svg
	width="63.4622"
	height="27.2468"
	viewBox="0 0 63.4622 27.2468"
	xmlns="http://www.w3.org/2000/svg"
	>
	<g
		id="svgGroup"
		stroke-linecap="round"
		fill-rule="evenodd"
		font-size="9pt"
		stroke-width="0"
		>
		<path
			d="M 54.5132 27.2268 L 38.0371 8.048 L 37.917 8.048 Q 37.917 3.924 40.1592 1.9621 Q 42.4014 0.0002 47.0659 0.0002 L 63.4619 19.8996 Q 63.4619 23.8635 61.3198 25.5651 Q 59.2378 27.2268 54.5132 27.2268 Z M 11.2109 27.2468 L 11.2109 0.0002 L 21.9814 0.0002 L 21.9814 27.2468 L 11.2109 27.2468 Z M 63.4619 13.7136 L 51.1099 0.0002 L 63.4619 0.0002 L 63.4619 13.7136 Z M 37.9771 27.2468 L 37.9771 13.4533 L 49.8687 27.2468 L 37.9771 27.2468 Z M 24.1636 2.7829 L 24.1636 0.0002 L 33.1323 0.0002 L 33.1323 11.3112 L 30.8901 11.3112 Q 28.688 11.3112 27.647 10.8408 Q 26.606 10.3703 26.0154 9.7797 Q 25.4248 9.1892 25.0044 8.2282 Q 24.1636 6.2663 24.1636 2.7829 Z M 0 11.3112 L 0 0.0002 L 8.9688 0.0002 L 8.9688 2.7829 Q 8.9688 7.9279 7.1069 9.7897 Q 5.5854 11.3112 2.2422 11.3112 L 0 11.3112 Z"
			vector-effect="non-scaling-stroke"
			/></g></svg>