<?xml version="1.0"?>
<svg xmlns="http://www.w3.org/2000/svg" width="840" height="370" font-family="sans-serif" font-size="25" text-anchor="middle">
<style>.big{font-size:40px; font-style:italic}</style>
<marker id="arrow" orient="auto" overflow="visible"><path d="M3 0-5 2.5v-5"/></marker>
<g stroke="#000">
<g fill="#FFF">
<path d="M35 35H160V235H35M805 35H680V235H805" stroke-width="3"/>
<circle cx="420" cy="135" r="100" stroke-width="2.5"/>
</g>
<g stroke-width="2" marker-end="url(#arrow)">
<path d="M160 135H310"/>
<path d="M520 135H670"/>
<path d="M420 235V329"/>
</g>
</g>
<g fill="#F00">
<switch><text class="big" x="77.61" y="146.63" id="trsvg14"><tspan id="trsvg1">T</tspan></text></switch>
<switch>
<text x="92" y="157.43" systemLanguage="fr" id="trsvg15"><tspan id="trsvg2">C</tspan></text>

<text x="92" y="157.43" id="trsvg16-ro" systemLanguage="ro"><tspan id="trsvg3-ro"> </tspan></text><text x="92" y="157.43" id="trsvg16"><tspan id="trsvg3">H</tspan></text></switch>
</g>
<g fill="#00A4FF">
<switch><text class="big" x="731.49" y="146.93" id="trsvg17"><tspan id="trsvg4">T</tspan></text></switch>
<switch>
<text x="745.87" y="157.73" systemLanguage="fr" id="trsvg18"><tspan id="trsvg5">F</tspan></text>

<text x="745.87" y="157.73" id="trsvg19-ro" systemLanguage="ro"><tspan id="trsvg6-ro">O</tspan></text><text x="745.87" y="157.73" id="trsvg19"><tspan id="trsvg6">C</tspan></text></switch>
</g>
<switch><text class="big" x="242.03" y="114.37" id="trsvg20"><tspan id="trsvg7">Q</tspan></text></switch>
<switch>
<text x="264.42" y="125.17" systemLanguage="fr" id="trsvg21"><tspan id="trsvg8">C</tspan></text>

<text x="264.42" y="125.17" id="trsvg22-ro" systemLanguage="ro"><tspan id="trsvg9-ro"> </tspan></text><text x="264.42" y="125.17" id="trsvg22"><tspan id="trsvg9">H</tspan></text></switch>
<switch><text class="big" x="596.88" y="111.38" id="trsvg23"><tspan id="trsvg10">Q</tspan></text></switch>
<switch>
<text x="619.27" y="122.18" systemLanguage="fr" id="trsvg24"><tspan id="trsvg11">F</tspan></text>

<text x="619.27" y="122.18" id="trsvg25-ro" systemLanguage="ro"><tspan id="trsvg12-ro">O</tspan></text><text x="619.27" y="122.18" id="trsvg25"><tspan id="trsvg12">C</tspan></text></switch>
<switch><text class="big" x="454.73" y="305.97" id="trsvg26-ro" systemLanguage="ro"><tspan id="trsvg13-ro">L</tspan></text><text class="big" x="454.73" y="305.97" id="trsvg26"><tspan id="trsvg13">W</tspan></text></switch>
</svg>
